<svg xmlns="http://www.w3.org/2000/svg" width="64" height="64" viewBox="0 0 64 64" shape-rendering="crispEdges">
  <rect width="64" height="64" fill="#1a0804"/>
  <rect x="4" y="4" width="56" height="56" fill="#7b2d0d"/>
  <rect x="8" y="8" width="48" height="48" fill="#d88a24"/>
  <rect x="12" y="12" width="40" height="40" fill="#2a130b"/>
  <rect x="16" y="10" width="32" height="8" fill="#0e0704"/>
  <rect x="12" y="18" width="40" height="8" fill="#180b06"/>
  <rect x="16" y="24" width="32" height="24" fill="#c6783f"/>
  <rect x="12" y="30" width="6" height="12" fill="#9b5732"/>
  <rect x="46" y="30" width="6" height="12" fill="#9b5732"/>
  <rect x="18" y="26" width="10" height="8" fill="#f0cf9a"/>
  <rect x="36" y="26" width="10" height="8" fill="#f0cf9a"/>
  <rect x="16" y="24" width="14" height="4" fill="#120604"/>
  <rect x="34" y="24" width="14" height="4" fill="#120604"/>
  <rect x="28" y="28" width="8" height="3" fill="#120604"/>
  <rect x="22" y="28" width="4" height="4" fill="#120604"/>
  <rect x="40" y="28" width="4" height="4" fill="#120604"/>
  <rect x="30" y="34" width="4" height="7" fill="#8f4a2b"/>
  <rect x="26" y="43" width="12" height="3" fill="#552111"/>
  <rect x="20" y="48" width="24" height="4" fill="#f1d3a4"/>
  <rect x="12" y="52" width="40" height="8" fill="#17100d"/>
  <rect x="28" y="52" width="8" height="8" fill="#e8dbc8"/>
  <rect x="22" y="54" width="6" height="6" fill="#1f5f89"/>
  <rect x="36" y="54" width="6" height="6" fill="#1f5f89"/>
  <rect x="4" y="4" width="56" height="4" fill="#f4b13a"/>
  <rect x="4" y="56" width="56" height="4" fill="#351006"/>
  <rect x="4" y="4" width="4" height="56" fill="#4d1708"/>
  <rect x="56" y="4" width="4" height="56" fill="#4d1708"/>
</svg>
